<svg width="80" height="80" viewBox="0 0 80 80" fill="none" xmlns="http://www.w3.org/2000/svg">
<path d="M24 22C21.78 22 20 23.78 20 26V46C20 47.0609 20.4214 48.0783 21.1716 48.8284C21.9217 49.5786 22.9391 50 24 50H40V60L46 54L52 60V50H56C57.0609 50 58.0783 49.5786 58.8284 48.8284C59.5786 48.0783 60 47.0609 60 46V32V28V26C60 24.9391 59.5786 23.9217 58.8284 23.1716C58.0783 22.4214 57.0609 22 56 22H48H24ZM40 26L46 30L52 26V33L58 36L52 39V46L46 42L40 46V39L34 36L40 33V26ZM24 26H34V30H24V26ZM24 34H30V38H24V34ZM24 42H34V46H24V42Z" fill="#33A9A9"/>
</svg>
