<svg width="80" height="80" viewBox="0 0 80 80" fill="none" xmlns="http://www.w3.org/2000/svg">
<path d="M52.86 22.32L54.08 30.04L61.1 33.62L57.56 40.62L61.12 47.62L54.04 51.2L52.82 58.92L45.04 57.7L39.5 63.22L33.94 57.62L26.22 58.9L24.98 51.12L18 47.56L21.56 40.56L18.02 33.62L25.04 30L26.26 22.34L34 23.62L39.56 18L45.1 23.54L52.86 22.32ZM34.56 30.62C33.7643 30.62 33.0013 30.9361 32.4387 31.4987C31.8761 32.0613 31.56 32.8244 31.56 33.62C31.56 34.4156 31.8761 35.1787 32.4387 35.7413C33.0013 36.3039 33.7643 36.62 34.56 36.62C35.3556 36.62 36.1187 36.3039 36.6813 35.7413C37.2439 35.1787 37.56 34.4156 37.56 33.62C37.56 32.8244 37.2439 32.0613 36.6813 31.4987C36.1187 30.9361 35.3556 30.62 34.56 30.62ZM44.56 44.62C43.7643 44.62 43.0013 44.9361 42.4387 45.4987C41.8761 46.0613 41.56 46.8244 41.56 47.62C41.56 48.4157 41.8761 49.1787 42.4387 49.7413C43.0013 50.3039 43.7643 50.62 44.56 50.62C45.3556 50.62 46.1187 50.3039 46.6813 49.7413C47.2439 49.1787 47.56 48.4157 47.56 47.62C47.56 46.8244 47.2439 46.0613 46.6813 45.4987C46.1187 44.9361 45.3556 44.62 44.56 44.62ZM32.38 50.62L49.56 33.44L46.74 30.62L29.56 47.8L32.38 50.62Z" fill="#F6655A"/>
</svg>
