<svg width="80" height="80" viewBox="0 0 80 80" fill="none" xmlns="http://www.w3.org/2000/svg">
<path d="M60 40V56C60 57.0609 59.5786 58.0783 58.8284 58.8284C58.0783 59.5786 57.0609 60 56 60H24C22.9391 60 21.9217 59.5786 21.1716 58.8284C20.4214 58.0783 20 57.0609 20 56V40C19.4696 40 18.9609 39.7893 18.5858 39.4142C18.2107 39.0391 18 38.5304 18 38V32C18 30.9391 18.4214 29.9217 19.1716 29.1716C19.9217 28.4214 20.9391 28 22 28H28.34C28.12 27.38 28 26.7 28 26C28 24.4087 28.6321 22.8826 29.7574 21.7574C30.8826 20.6321 32.4087 20 34 20C36 20 37.76 21 38.86 22.48V22.46L40 24L41.14 22.46V22.48C42.24 21 44 20 46 20C47.5913 20 49.1174 20.6321 50.2426 21.7574C51.3679 22.8826 52 24.4087 52 26C52 26.7 51.88 27.38 51.66 28H58C59.0609 28 60.0783 28.4214 60.8284 29.1716C61.5786 29.9217 62 30.9391 62 32V38C62 38.5304 61.7893 39.0391 61.4142 39.4142C61.0391 39.7893 60.5304 40 60 40ZM24 56H38V40H24V56ZM56 56V40H42V56H56ZM34 24C33.4696 24 32.9609 24.2107 32.5858 24.5858C32.2107 24.9609 32 25.4696 32 26C32 26.5304 32.2107 27.0391 32.5858 27.4142C32.9609 27.7893 33.4696 28 34 28C34.5304 28 35.0391 27.7893 35.4142 27.4142C35.7893 27.0391 36 26.5304 36 26C36 25.4696 35.7893 24.9609 35.4142 24.5858C35.0391 24.2107 34.5304 24 34 24V24ZM46 24C45.4696 24 44.9609 24.2107 44.5858 24.5858C44.2107 24.9609 44 25.4696 44 26C44 26.5304 44.2107 27.0391 44.5858 27.4142C44.9609 27.7893 45.4696 28 46 28C46.5304 28 47.0391 27.7893 47.4142 27.4142C47.7893 27.0391 48 26.5304 48 26C48 25.4696 47.7893 24.9609 47.4142 24.5858C47.0391 24.2107 46.5304 24 46 24V24ZM22 32V36H38V32H22ZM42 32V36H58V32H42Z" fill="#4F91FF"/>
</svg>
